<svg xmlns="http://www.w3.org/2000/svg" fill="none" viewBox="0 0 80 80">
  <rect width="80" height="80" fill="#083C4D" rx="40"/>
  <path fill="#F7F4F0" d="M54.118 24.65v.176c-1.148 1.502-1.413 3.357-1.413 6.626v17.096c0 3.224.265 5.08 1.413 6.626v.177h-7.156v-.177c1.104-1.546 1.414-3.401 1.414-6.626v-7.245H31.633v7.245c0 3.224.31 5.08 1.414 6.626v.177h-7.156v-.177c1.148-1.546 1.413-3.401 1.413-6.626V31.452c0-3.269-.265-5.124-1.413-6.626v-.177h7.156v.177c-1.104 1.502-1.414 3.357-1.414 6.626v6.803h16.743v-6.803c0-3.269-.31-5.124-1.414-6.626v-.177h7.156Z"/>
  <path fill="#083C4D" d="M31.641 35.722h16.717v7.573H31.641z"/>
  <path fill="#F7F4F0" fill-rule="evenodd" d="M40.542 40.534c-.933-.056-1.793-.107-2.638-.095-1.883.026-3.216.437-4.17 1.35-.976.93-1.842 2.659-2.16 5.953l-3.37-.325c.356-3.695 1.387-6.354 3.19-8.077 1.824-1.743 4.15-2.254 6.462-2.287.974-.014 2.041.05 3.037.11.41.024.809.047 1.184.064 1.372.064 2.538.051 3.498-.166.916-.207 1.535-.575 1.964-1.173.454-.632.852-1.741.852-3.733h3.386c0 2.395-.472 4.294-1.487 5.708-1.04 1.449-2.488 2.166-3.968 2.501-1.436.325-2.993.31-4.4.246-.481-.022-.939-.05-1.38-.076Z" clip-rule="evenodd"/>
</svg>